# Blender v2.79 (sub 0) OBJ File: 'untitled.blend'
# www.blender.org
v 0.916631 -0.024097 -1.117121
v 1.299315 -0.024097 -1.041001
v 1.623738 -0.024097 -0.824228
v 1.840511 -0.024097 -0.499805
v 1.916631 -0.024097 -0.117121
v 1.840511 -0.024097 0.265562
v 1.623738 -0.024097 0.589985
v 1.299315 -0.024097 0.806758
v 0.916631 -0.024097 0.882879
v 0.533948 -0.024097 0.806758
v 0.209525 -0.024097 0.589986
v 0.916631 1.975903 -0.117121
v -0.007248 -0.024097 0.265562
v -0.083369 -0.024097 -0.117121
v -0.007248 -0.024097 -0.499805
v 0.209525 -0.024097 -0.824228
v 0.533948 -0.024097 -1.041001
vn 0.1752 0.4403 -0.8806
vn 0.4988 0.4403 -0.7465
vn 0.7465 0.4403 -0.4988
vn 0.8806 0.4403 -0.1752
vn 0.8806 0.4403 0.1752
vn 0.7465 0.4403 0.4988
vn 0.4988 0.4403 0.7465
vn 0.1752 0.4403 0.8806
vn -0.1752 0.4403 0.8806
vn -0.4988 0.4403 0.7465
vn -0.7465 0.4403 0.4988
vn -0.8806 0.4403 0.1752
vn -0.8806 0.4403 -0.1752
vn -0.7465 0.4403 -0.4988
vn -0.4988 0.4403 -0.7465
vn -0.1752 0.4403 -0.8806
vn 0.0000 -1.0000 0.0000
s off
f 1//1 12//1 2//1
f 2//2 12//2 3//2
f 3//3 12//3 4//3
f 4//4 12//4 5//4
f 5//5 12//5 6//5
f 6//6 12//6 7//6
f 7//7 12//7 8//7
f 8//8 12//8 9//8
f 9//9 12//9 10//9
f 10//10 12//10 11//10
f 11//11 12//11 13//11
f 13//12 12//12 14//12
f 14//13 12//13 15//13
f 15//14 12//14 16//14
f 16//15 12//15 17//15
f 17//16 12//16 1//16
f 4//17 8//17 13//17
f 17//17 1//17 2//17
f 2//17 3//17 17//17
f 3//17 4//17 17//17
f 4//17 5//17 6//17
f 6//17 7//17 4//17
f 7//17 8//17 4//17
f 8//17 9//17 13//17
f 9//17 10//17 13//17
f 10//17 11//17 13//17
f 13//17 14//17 15//17
f 15//17 16//17 17//17
f 13//17 15//17 17//17
f 17//17 4//17 13//17
